 <svg  version="1.0" xmlns="http://www.w3.org/2000/svg"  width="1350.000000pt" height="282.000000pt" viewBox="0 0 1350.000000 282.000000"  preserveAspectRatio="xMidYMid meet">  <g transform="translate(0.000000,282.000000) scale(0.100000,-0.100000)" fill="#f72b2b" stroke="none"> <path d="M389 2551 c-24 -15 -56 -41 -71 -57 -61 -65 -58 -8 -58 -1116 0 -975 1 -1015 20 -1055 24 -53 71 -98 136 -129 l51 -24 424 2 424 3 3 236 2 237 40 36 c22 20 40 42 40 50 0 8 -42 48 -92 90 -130 108 -329 274 -467 389 -64 53 -122 103 -130 109 -8 6 -57 47 -110 91 -153 126 -141 101 -141 293 0 93 4 174 10 184 10 18 42 46 295 260 62 52 139 118 171 145 32 28 106 91 165 142 59 50 116 96 128 102 11 7 21 18 21 26 0 13 -56 15 -408 15 l-408 0 -45 -29z"/> <path d="M1605 2568 c-2 -7 -6 -109 -7 -226 l-3 -214 -45 -38 -45 -39 25 -23 c14 -13 37 -33 53 -45 27 -21 104 -87 181 -154 23 -20 50 -43 61 -52 11 -8 88 -73 170 -142 83 -70 213 -181 291 -246 77 -65 146 -125 153 -133 13 -16 24 -336 12 -367 -5 -14 -145 -136 -330 -288 -65 -53 -121 -100 -186 -156 -32 -27 -71 -59 -86 -70 -57 -42 -229 -190 -229 -197 0 -4 193 -8 428 -8 l428 0 51 26 c29 14 67 43 87 64 68 76 66 34 66 1124 0 773 -3 990 -13 1024 -17 56 -58 107 -115 143 l-46 29 -448 0 c-350 0 -450 -3 -453 -12z"/> <path d="M1255 2233 c-81 -70 -162 -139 -180 -153 -57 -43 -278 -233 -326 -280 l-46 -45 3 -65 c2 -36 3 -75 4 -86 0 -15 38 -53 126 -125 137 -113 429 -356 508 -423 27 -22 55 -45 62 -49 19 -11 27 28 22 119 -3 67 -7 79 -29 98 -15 11 -68 55 -119 96 -52 41 -125 102 -164 135 -39 34 -83 70 -97 80 -70 54 -149 130 -149 144 0 9 28 39 63 68 34 28 76 64 94 80 53 47 82 73 238 206 83 71 154 135 158 143 12 21 4 177 -9 181 -7 2 -78 -54 -159 -124z"/> <path d="M1526 1734 c-3 -8 -6 -51 -6 -95 0 -72 2 -81 28 -108 22 -25 237 -209 447 -385 27 -22 59 -52 72 -65 21 -22 21 -24 6 -45 -10 -13 -32 -34 -49 -47 -17 -13 -115 -94 -216 -180 -102 -86 -198 -164 -214 -173 -56 -33 -74 -73 -74 -164 0 -44 5 -84 10 -87 6 -3 93 63 194 147 100 84 256 214 345 288 90 74 167 142 172 152 12 23 11 145 -1 168 -6 10 -61 62 -123 114 -357 301 -470 396 -524 444 -48 41 -62 49 -67 36z"/> <path d="M3206 1699 c-122 -46 -184 -169 -137 -274 36 -82 72 -105 246 -160 109 -34 161 -77 151 -123 -14 -59 -92 -90 -185 -74 -53 10 -89 24 -155 59 -34 18 -53 11 -76 -30 -21 -38 -7 -55 85 -102 70 -35 89 -40 167 -43 68 -3 99 0 134 13 91 35 144 106 144 195 0 47 -26 116 -51 137 -21 17 -135 73 -149 73 -7 0 -43 9 -81 21 -82 25 -129 64 -129 106 0 96 133 137 253 78 l58 -29 29 35 c16 19 29 36 29 39 2 24 -69 68 -134 85 -73 19 -138 17 -199 -6z"/> <path d="M4000 1706 c-74 -14 -95 -24 -164 -75 -119 -88 -173 -255 -132 -407 29 -110 129 -218 240 -259 66 -24 194 -24 256 0 50 20 148 89 157 110 2 8 -11 31 -30 52 l-36 37 -38 -30 c-68 -55 -102 -67 -183 -68 -89 0 -136 20 -193 83 -117 129 -89 321 58 410 91 56 208 47 299 -21 28 -21 53 -38 56 -38 3 0 21 15 39 34 28 29 31 37 22 55 -24 44 -127 104 -201 115 -25 4 -54 8 -65 10 -11 2 -49 -2 -85 -8z"/> <path d="M6945 1705 c-85 -18 -124 -37 -184 -91 -262 -236 -102 -664 250 -667 55 0 92 5 135 22 60 22 154 92 154 115 0 7 -15 27 -33 44 l-33 32 -41 -29 c-76 -55 -103 -64 -183 -64 -58 0 -84 5 -117 22 -113 60 -169 183 -138 304 26 101 97 171 203 197 43 12 61 12 105 1 56 -15 97 -33 119 -53 45 -43 47 -43 83 -8 19 19 35 39 35 46 0 35 -133 116 -210 128 -25 4 -54 9 -65 10 -11 2 -47 -2 -80 -9z"/> <path d="M8690 1706 c-74 -24 -120 -78 -135 -159 -8 -40 9 -117 32 -152 19 -29 16 -46 -16 -80 -114 -119 -88 -281 54 -346 76 -35 194 -15 266 45 38 32 50 32 87 1 17 -14 32 -25 36 -25 13 0 66 61 66 77 0 9 -14 32 -32 50 l-31 32 32 67 c18 36 31 70 29 76 -3 9 -71 37 -90 38 -4 0 -21 -20 -38 -45 -28 -41 -33 -44 -53 -34 -44 24 -88 89 -59 89 4 0 24 15 44 33 117 104 79 289 -68 332 -60 17 -75 17 -124 1z m120 -136 c29 -29 26 -71 -7 -102 -65 -60 -101 -57 -121 10 -16 52 -15 55 9 86 26 33 88 37 119 6z m-39 -371 c71 -63 75 -83 17 -109 -60 -27 -100 -25 -137 6 -43 36 -40 83 7 137 25 28 50 20 113 -34z"/> <path d="M9756 1703 c-86 -26 -156 -120 -156 -208 0 -115 64 -170 278 -235 121 -38 166 -104 108 -159 -55 -51 -160 -48 -274 8 l-74 36 -29 -33 c-16 -18 -29 -38 -29 -46 0 -19 71 -63 146 -92 78 -29 200 -33 260 -8 127 53 175 174 115 292 -15 30 -35 46 -91 75 -40 20 -80 37 -90 37 -31 0 -152 49 -176 71 -33 31 -38 53 -19 92 33 71 139 90 238 43 63 -30 69 -29 108 25 l20 28 -41 30 c-80 58 -194 75 -294 44z"/> <path d="M10555 1705 c-87 -18 -126 -38 -189 -96 -38 -34 -66 -72 -88 -117 -29 -61 -32 -76 -33 -162 0 -87 3 -101 32 -162 40 -85 103 -147 191 -188 127 -61 294 -39 397 52 25 22 45 46 45 53 0 7 -16 27 -36 45 l-36 31 -27 -24 c-53 -50 -110 -71 -191 -71 -64 0 -82 5 -123 28 -60 36 -114 99 -128 150 -15 54 -6 162 16 206 40 80 152 151 237 150 50 -1 122 -28 170 -64 54 -39 59 -39 100 9 25 29 22 39 -17 74 -48 41 -120 77 -175 85 -25 4 -54 9 -65 10 -11 2 -47 -2 -80 -9z"/> <path d="M4489 1673 c-6 -17 -7 -40 -2 -58 l9 -30 200 -5 c149 -4 205 -9 217 -19 26 -21 40 -81 28 -113 -20 -53 -40 -58 -245 -59 -149 -2 -191 -5 -202 -17 -12 -11 -14 -49 -14 -195 1 -100 6 -189 11 -199 13 -25 85 -25 98 0 5 9 10 76 10 147 1 97 5 133 15 140 12 9 46 11 128 6 9 -1 53 -59 108 -146 51 -80 100 -150 110 -155 10 -6 37 -10 59 -10 36 0 41 3 41 23 0 12 -19 51 -43 87 -55 84 -117 186 -117 193 0 3 21 18 48 35 26 16 61 48 77 72 26 38 30 52 30 114 0 60 -4 77 -26 109 -33 47 -82 84 -129 97 -19 5 -117 10 -218 10 l-182 0 -11 -27z"/> <path d="M5531 1691 c-18 -11 1 -64 98 -273 17 -37 31 -73 31 -80 1 -7 7 -24 15 -38 22 -41 5 -50 -104 -50 -118 0 -133 7 -108 51 9 17 17 39 17 50 0 16 -7 19 -55 19 -54 0 -55 -1 -75 -40 -11 -21 -20 -44 -20 -50 0 -5 -13 -39 -30 -73 -16 -35 -30 -67 -30 -71 0 -4 -14 -35 -30 -68 -37 -75 -36 -102 4 -106 45 -5 76 7 86 34 6 14 21 50 36 79 l25 55 178 0 c202 0 177 11 222 -98 25 -60 41 -72 98 -72 33 0 41 4 41 18 0 10 -61 159 -135 332 -74 173 -135 319 -135 326 0 6 -9 23 -21 38 -15 20 -29 26 -57 26 -20 0 -43 -4 -51 -9z"/> <path d="M5934 1686 c-3 -7 -4 -33 -2 -57 l3 -44 290 0 290 0 3 49 c2 32 -1 52 -10 57 -7 5 -138 9 -291 9 -227 0 -279 -3 -283 -14z"/> <path d="M7436 1692 c-8 -13 -9 -168 -2 -181 9 -14 61 -14 87 -1 16 9 19 22 19 88 0 47 -5 83 -12 90 -14 14 -84 16 -92 4z"/> <path d="M7923 1693 c-10 -3 -13 -43 -13 -148 0 -84 -4 -146 -10 -150 -5 -3 -109 -7 -229 -7 -121 -1 -225 -4 -231 -8 -7 -4 -10 -72 -8 -211 l3 -204 41 -3 c25 -2 45 2 52 11 7 8 12 68 14 153 l3 139 180 0 180 0 3 -139 c2 -85 7 -145 14 -153 7 -9 27 -13 52 -11 l41 3 3 359 c2 281 -1 361 -10 368 -14 8 -66 9 -85 1z"/> <path d="M11034 1686 c-3 -7 -4 -33 -2 -57 l3 -44 203 -5 204 -5 24 -28 c45 -53 23 -137 -39 -152 -12 -3 -102 -6 -199 -8 -109 -1 -181 -6 -188 -13 -7 -7 -10 -78 -8 -210 l3 -199 29 -3 c15 -2 39 -1 52 2 24 6 24 8 24 140 0 74 3 141 6 150 5 13 22 16 80 16 l74 0 27 -39 c16 -21 41 -61 58 -87 16 -27 44 -74 63 -104 43 -70 56 -80 109 -80 53 0 63 17 37 59 -11 17 -47 75 -81 130 -35 55 -63 106 -63 113 0 7 17 22 37 33 80 43 114 100 114 191 0 93 -39 152 -131 193 -40 18 -65 21 -238 21 -155 0 -194 -3 -198 -14z"/> <path d="M11752 1688 c-9 -9 -12 -102 -12 -358 0 -256 3 -349 12 -358 16 -16 70 -16 86 0 9 9 12 104 12 364 0 312 -2 353 -16 358 -26 10 -69 7 -82 -6z"/> <path d="M11973 1689 c-16 -16 -17 -81 -1 -97 9 -9 68 -12 204 -12 l192 0 31 -31 c42 -41 42 -89 2 -130 l-29 -29 -144 -1 c-181 -1 -242 -4 -256 -13 -17 -10 -17 -387 0 -404 20 -20 86 -15 98 7 5 11 10 80 10 154 l0 135 153 4 c140 3 156 5 197 28 24 14 58 45 75 68 27 39 30 52 30 116 0 62 -4 78 -27 114 -15 22 -49 54 -75 69 -48 28 -49 28 -248 31 -151 3 -203 0 -212 -9z"/> <path d="M12654 1686 c-3 -7 -4 -33 -2 -57 l3 -44 290 0 290 0 9 28 c6 17 6 37 0 55 l-9 27 -288 3 c-239 2 -288 0 -293 -12z"/> <path d="M6175 1448 c-3 -7 -4 -119 -3 -248 l3 -235 41 -3 c26 -2 45 2 53 11 8 11 11 80 9 248 l-3 234 -48 3 c-32 2 -49 -1 -52 -10z"/> <path d="M12897 1454 c-13 -13 -8 -469 5 -482 7 -7 29 -12 50 -12 31 0 40 4 46 23 4 12 5 123 2 247 l-5 225 -45 3 c-25 2 -49 0 -53 -4z"/> </g> </svg> 
